<svg width="24" height="25" viewBox="0 0 24 25" fill="none" xmlns="http://www.w3.org/2000/svg">
<path d="M12.0014 2.16266C15.2066 2.16266 15.5859 2.1749 16.8514 2.23199C18.0217 2.285 18.6565 2.48074 19.0793 2.64522C19.6393 2.86271 20.039 3.1237 20.459 3.54237C20.879 3.96239 21.1386 4.36203 21.3561 4.92207C21.5206 5.34481 21.7164 5.98097 21.7694 7.14998C21.8265 8.4155 21.8387 8.79474 21.8387 12C21.8387 15.2053 21.8265 15.5845 21.7694 16.85C21.7164 18.0204 21.5206 18.6552 21.3561 19.0779C21.1386 19.638 20.8777 20.0376 20.459 20.4576C20.039 20.8777 19.6393 21.1373 19.0793 21.3548C18.6565 21.5193 18.0204 21.715 16.8514 21.768C15.5859 21.8251 15.2066 21.8373 12.0014 21.8373C8.7961 21.8373 8.41686 21.8251 7.15134 21.768C5.98097 21.715 5.34617 21.5193 4.92343 21.3548C4.36339 21.1373 3.96375 20.8763 3.54372 20.4576C3.1237 20.0376 2.86407 19.638 2.64658 19.0779C2.4821 18.6552 2.28636 18.019 2.23335 16.85C2.17626 15.5845 2.16402 15.2053 2.16402 12C2.16402 8.79474 2.17626 8.4155 2.23335 7.14998C2.28636 5.97961 2.4821 5.34481 2.64658 4.92207C2.86407 4.36203 3.12506 3.96239 3.54372 3.54237C3.96375 3.12234 4.36339 2.86271 4.92343 2.64522C5.34617 2.48074 5.98233 2.285 7.15134 2.23199C8.41686 2.1749 8.79746 2.16266 12.0014 2.16266ZM12.0014 0C8.74173 0 8.33258 0.0135931 7.05347 0.0720435C5.77571 0.130494 4.90304 0.333031 4.14046 0.629361C3.3507 0.936565 2.68192 1.34708 2.0145 2.01314C1.34708 2.68056 0.936566 3.34934 0.63072 4.1391C0.334391 4.90304 0.130494 5.77435 0.0734028 7.05211C0.0135931 8.33394 0 8.74173 0 12.0014C0 15.261 0.0135931 15.6701 0.0720435 16.9493C0.130494 18.227 0.333031 19.0997 0.629361 19.8623C0.936565 20.652 1.34708 21.3208 2.01314 21.9882C2.68056 22.6556 3.34934 23.0662 4.1391 23.372C4.90304 23.6683 5.77435 23.8722 7.05211 23.9293C8.33258 23.9878 8.74037 24.0014 12 24.0014C15.2596 24.0014 15.6688 23.9878 16.9479 23.9293C18.2256 23.8709 19.0983 23.6683 19.8609 23.372C20.6507 23.0648 21.3194 22.6543 21.9869 21.9882C22.6543 21.3208 23.0648 20.652 23.3706 19.8623C23.667 19.0983 23.8709 18.227 23.928 16.9493C23.9864 15.6688 24 15.261 24 12.0014C24 8.74173 23.9864 8.33258 23.928 7.05347C23.8695 5.77571 23.667 4.90304 23.3706 4.14046C23.0634 3.3507 22.6529 2.68192 21.9869 2.0145C21.3194 1.34708 20.6507 0.936565 19.8609 0.63072C19.097 0.334391 18.2256 0.130494 16.9479 0.0734028C15.6701 0.0135931 15.261 0 12.0014 0Z" fill="black"/>
<path d="M12.0015 5.83826C8.59778 5.83826 5.83838 8.59766 5.83838 12.0014C5.83838 15.4051 8.59778 18.1645 12.0015 18.1645C15.4052 18.1645 18.1646 15.4051 18.1646 12.0014C18.1646 8.59766 15.4052 5.83826 12.0015 5.83826ZM12.0015 16.0018C9.79262 16.0018 8.00104 14.2103 8.00104 12.0014C8.00104 9.79249 9.79262 8.00092 12.0015 8.00092C14.2104 8.00092 16.0019 9.79249 16.0019 12.0014C16.0019 14.2103 14.2117 16.0018 12.0015 16.0018Z" fill="black"/>
<path d="M18.4077 7.03579C19.2034 7.03579 19.8485 6.39069 19.8485 5.59492C19.8485 4.79915 19.2034 4.15405 18.4077 4.15405C17.6119 4.15405 16.9668 4.79915 16.9668 5.59492C16.9668 6.39069 17.6119 7.03579 18.4077 7.03579Z" fill="black"/>
</svg>
