<svg width="24" height="20" viewBox="0 0 24 20" fill="none" xmlns="http://www.w3.org/2000/svg">
<path fill-rule="evenodd" clip-rule="evenodd" d="M2.8 3.9C2.8 3.6 2.7 3.3 2.5 3.1L0.3 0.4V0H7.3L12.7 11.8L17.4 0H24V0.4L22.1 2.2C21.9 2.3 21.9 2.5 21.9 2.7V16.2C21.9 16.4 21.9 16.6 22.1 16.7L24 18.5V18.9H14.6V18.5L16.5 16.6C16.7 16.4 16.7 16.4 16.7 16.1V5.3L11.3 19H10.6L4.3 5.3V14.5C4.2 14.9 4.4 15.3 4.6 15.6L7.1 18.7V19H0V18.6L2.5 15.5C2.8 15.2 2.9 14.8 2.8 14.4C2.8 14.5 2.8 3.9 2.8 3.9Z" fill="black"/>
</svg>
